<svg xmlns="http://www.w3.org/2000/svg" viewBox="0 0 500 500"><g id="freepik--Floor--inject-14"><path d="M409,255.09c-88.41-51-231.28-51-319.12,0S2.55,388.9,91,439.94s231.28,51.05,319.12,0S497.45,306.14,409,255.09Z" style="fill:#f5f5f5"></path></g><g id="freepik--Shadows--inject-14"><path d="M69.24,329.48c-6.21-3.58-16.23-3.58-22.4,0s-6.13,9.39.07,13,16.24,3.59,22.4,0S75.44,333.06,69.24,329.48Z" style="fill:#e6e6e6"></path><polygon points="302.07 229.66 72.81 363.74 62.16 357.59 291.43 223.52 302.07 229.66" style="fill:#e6e6e6"></polygon><path d="M416.05,352.12l-50.73-29.38a9.18,9.18,0,0,0-9.17,0L309.9,349.45l-47.52-27.33a6.1,6.1,0,0,0-6.1,0l-82.74,47.8a1,1,0,0,0,0,1.76l139.23,80.16a6.14,6.14,0,0,0,6.11,0L401.62,404a1,1,0,0,0,0-1.76l-33.2-19.12,47.63-27.51A2,2,0,0,0,416.05,352.12Z" style="fill:#e6e6e6"></path><path d="M451.38,352.88c-6.54-3.77-17.11-3.77-23.61,0s-6.46,9.9.08,13.68,17.11,3.77,23.61,0S457.92,356.66,451.38,352.88Z" style="fill:#e6e6e6"></path></g><g id="freepik--Pictures--inject-14"><polygon points="400.3 80.31 432.21 98.74 432.14 123.12 400.23 104.7 400.3 80.31" style="fill:none"></polygon><polygon points="400.3 80.31 400.23 104.7 397.27 106.42 397.35 78.61 400.3 80.31" style="fill:#f0f0f0"></polygon><polygon points="432.14 123.12 432.13 126.54 397.27 106.42 400.23 104.7 432.14 123.12" style="fill:#f5f5f5"></polygon><path d="M393.69,108.46l42,24.25.1-36-42-24.25Zm3.58-2,.08-27.81,2.95,1.7,31.91,18.43-.07,24.38v3.42Z" style="fill:#e0e0e0"></path><polygon points="393.79 72.45 396.75 70.73 438.75 94.98 435.79 96.7 393.79 72.45" style="fill:#f5f5f5"></polygon><polygon points="438.75 94.98 438.64 130.99 435.69 132.71 435.79 96.7 438.75 94.98" style="fill:#f0f0f0"></polygon><polygon points="400.32 135.05 432.23 153.47 432.16 177.86 400.25 159.43 400.32 135.05" style="fill:none"></polygon><polygon points="400.32 135.05 400.25 159.43 397.3 161.15 397.37 133.34 400.32 135.05" style="fill:#f0f0f0"></polygon><polygon points="432.16 177.86 432.15 181.28 397.3 161.15 400.25 159.43 432.16 177.86" style="fill:#f5f5f5"></polygon><path d="M393.71,163.19l42,24.25.1-36-42-24.25Zm3.58-2,.08-27.81,2.95,1.71,31.91,18.42-.07,24.39v3.42Z" style="fill:#e0e0e0"></path><polygon points="393.81 127.19 396.77 125.47 438.77 149.72 435.81 151.43 393.81 127.19" style="fill:#f5f5f5"></polygon><polygon points="438.77 149.72 438.67 185.72 435.71 187.44 435.81 151.43 438.77 149.72" style="fill:#f0f0f0"></polygon><path d="M351,95.35h0c-.38-.18-.76-.36-1.14-.56h0C350.23,95,350.61,95.17,351,95.35Z" style="fill:none"></path><path d="M351.41,95.55h0l-.42-.2h0Z" style="fill:none"></path><polygon points="337.98 47.84 346.7 52.87 355.57 57.99 346.7 52.87 337.98 47.84" style="fill:none"></polygon><polygon points="337.9 76.6 337.92 68.5 337.94 61.11 337.92 68.5 337.9 76.6" style="fill:none"></polygon><path d="M349.85,94.79l-.24-.12.24.12Z" style="fill:none"></path><polygon points="337.8 112.09 337.81 105.32 337.83 99.4 337.81 105.32 337.8 112.09" style="fill:none"></polygon><path d="M354.8,97c-1.12-.4-2.25-.87-3.39-1.4h0C352.55,96.08,353.68,96.55,354.8,97Z" style="fill:none"></path><polygon points="363.89 72.82 363.82 98.82 363.78 113.89 363.82 98.82 363.89 72.82" style="fill:none"></polygon><path d="M337.82,105.32V99.4l.27.15.5.29c4.37,2.64,8.76,6.8,12.85,11.28q1,1.13,2,2.25c3.44,3.95,6.82,8.13,10.28,12l0,9.57-4.18-2.41A91.85,91.85,0,0,0,337.82,105.32Z" style="fill:#ebebeb"></path><path d="M337.77,120l0-7.92a50.2,50.2,0,0,1,8.87,13Z" style="fill:#ebebeb"></path><path d="M346.67,125.14a50.2,50.2,0,0,0-8.87-13l0-6.77a91.85,91.85,0,0,1,21.72,27.25l-12.87-7.43Z" style="fill:#fafafa"></path><path d="M351.41,95.55h0" style="fill:none;stroke:gray;stroke-linecap:round;stroke-linejoin:round;stroke-width:0px"></path><path d="M351,95.35h0" style="fill:none;stroke:gray;stroke-linecap:round;stroke-linejoin:round;stroke-width:0px"></path><path d="M355.4,97.16l-.6-.21c-1.12-.4-2.25-.87-3.39-1.4l-.41-.2c-.39-.18-.77-.36-1.15-.56-.66-.34-1.32-.69-2-1.06.67.37,1.33.72,2,1.06l-.24-.12c-.58-.3-1.16-.61-1.75-.94l-.37-.21-.3-.18a63,63,0,0,1-8.94-6.4l-.38-.33,0-10c6.35,3.25,12.6,4.26,17.64,2.69a15.42,15.42,0,0,0,8.35-6.47l-.07,26A30.69,30.69,0,0,1,355.4,97.16Z" style="fill:#fafafa"></path><path d="M351.45,111.12c-4.09-4.48-8.48-8.64-12.85-11.28l-.5-.29-.27-.15,0-5.74a124.55,124.55,0,0,1,23.39,17.81c.85.81,1.69,1.63,2.54,2.42l0,11.52c-3.46-3.91-6.84-8.09-10.28-12Q352.47,112.25,351.45,111.12Z" style="fill:#fafafa"></path><path d="M337.85,93.66l0-7,.38.33a63,63,0,0,0,8.94,6.4l.3.18.37.21c.59.33,1.17.64,1.75.94l.24.12.16.09h0l-.16-.09c.38.2.76.38,1.14.56l.42.2c1.14.53,2.27,1,3.39,1.4l-.64-.24.64.24.6.21a30.69,30.69,0,0,0,8.42,1.66l0,15.07c-.85-.79-1.69-1.61-2.54-2.42A124.55,124.55,0,0,0,337.85,93.66Z" style="fill:#ebebeb"></path><path d="M337.92,68.5l0-7.39c4-.94,7.13-3.87,8.76-8.24L355.57,58A18.3,18.3,0,0,1,337.92,68.5Z" style="fill:#fafafa"></path><path d="M355.54,79.29c-5,1.57-11.29.56-17.64-2.69l0-8.1A18.3,18.3,0,0,0,355.57,58l8.35,4.82,0,10A15.42,15.42,0,0,1,355.54,79.29Z" style="fill:#ebebeb"></path><path d="M336.31,120.84l28.87,16.67L365.39,62,336.52,45.32Zm23.23,11.73-12.87-7.43h0l-8.9-5.13,0-7.92,0-6.77V99.4l0-5.74,0-7,0-10,0-8.1,0-7.39,0-13.27,8.72,5L355.57,58l8.35,4.82,0,10-.07,26,0,15.07,0,11.52,0,9.57Z" style="fill:#fff"></path><path d="M350,94.89h0" style="fill:none;stroke:gray;stroke-linecap:round;stroke-linejoin:round;stroke-width:0px"></path><path d="M350,94.88l-.16-.09" style="fill:none;stroke:gray;stroke-linecap:round;stroke-linejoin:round;stroke-width:0px"></path><path d="M347.86,93.73c.67.37,1.33.72,2,1.06" style="fill:none;stroke:gray;stroke-linecap:round;stroke-linejoin:round;stroke-width:0px"></path><line x1="349.85" y1="94.79" x2="349.85" y2="94.79" style="fill:none;stroke:gray;stroke-linecap:round;stroke-linejoin:round;stroke-width:0px"></line><path d="M354.8,97l-.64-.24" style="fill:none;stroke:gray;stroke-linecap:round;stroke-linejoin:round;stroke-width:0px"></path><path d="M337.94,61.11l0-13.27,8.72,5C345.07,57.24,342,60.17,337.94,61.11Z" style="fill:#ebebeb"></path><polygon points="336.31 120.84 365.18 137.5 365.17 139.51 334.57 121.84 336.31 120.84" style="fill:#cacaca"></polygon><polygon points="336.52 45.32 336.31 120.84 334.57 121.84 334.79 44.32 336.52 45.32" style="fill:#f0f0f0"></polygon><path d="M329.9,124.51l39.91,23,.25-88.23-39.91-23Zm4.67-2.67.22-77.52,1.73,1L365.39,62l-.21,75.52v2Z" style="fill:#e0e0e0"></path><polygon points="330.15 36.28 333.44 34.51 373.36 57.55 370.06 59.32 330.15 36.28" style="fill:#f5f5f5"></polygon><polygon points="373.36 57.55 373.11 145.78 369.81 147.55 370.06 59.32 373.36 57.55" style="fill:#f0f0f0"></polygon><polygon points="410.44 89.57 401.73 96.42 401.71 103.12 430.66 119.83 430.68 113.14 425.16 102.18 420.21 106.03 421.96 111.47 419.42 106.64 410.44 89.57" style="fill:#e0e0e0"></polygon><path d="M419.94,93c-1.36-.79-2.47-.16-2.47,1.41a5.43,5.43,0,0,0,2.46,4.26c1.36.78,2.47.15,2.47-1.41A5.37,5.37,0,0,0,419.94,93Z" style="fill:#e0e0e0"></path><polygon points="410.46 144.31 401.76 151.16 401.74 157.85 430.68 174.56 430.7 167.87 425.18 156.91 420.23 160.76 421.98 166.2 419.44 161.37 410.46 144.31" style="fill:#e0e0e0"></polygon><path d="M420,147.68c-1.37-.79-2.48-.16-2.48,1.41a5.44,5.44,0,0,0,2.46,4.26c1.36.79,2.47.15,2.47-1.41A5.4,5.4,0,0,0,420,147.68Z" style="fill:#e0e0e0"></path></g><g id="freepik--Character--inject-14"><path d="M360.57,275.21h6.61s7.67,50.41,8.2,60.07a.85.85,0,0,1-.5.69,2.61,2.61,0,0,1-2.37,0,.85.85,0,0,1-.46-.61h0C371.1,329.6,360.57,275.21,360.57,275.21Z" style="fill:#37474f"></path><path d="M367.18,275.21s.33,2.17.85,5.66c-1,2.27-3.35,4.74-5.44,4.79l-2-10.45Z" style="opacity:0.30000000000000004"></path><path d="M368,317.48h-6.61s-7.68,50.41-8.21,60.07a.85.85,0,0,0,.5.69,2.63,2.63,0,0,0,2.38,0,.87.87,0,0,0,.46-.6h0C357.45,371.87,368,317.48,368,317.48Z" style="fill:#37474f"></path><path d="M361.37,317.48l-.86,5.66a17.22,17.22,0,0,0,6.13,1.27c.81-4.24,1.34-6.93,1.34-6.93Z" style="opacity:0.30000000000000004"></path><path d="M396.81,295.65h6.6s7.68,50.4,8.21,60.07a.83.83,0,0,1-.5.68,2.57,2.57,0,0,1-2.38,0,.85.85,0,0,1-.46-.6h0C407.33,350,396.81,295.65,396.81,295.65Z" style="fill:#37474f"></path><path d="M403.41,295.65l.86,5.65c-1.06,2.27-3.35,4.75-5.45,4.79-.81-4.24-2-10.44-2-10.44Z" style="opacity:0.30000000000000004"></path><path d="M328.88,295h-6.61s-7.68,50.41-8.21,60.07a.85.85,0,0,0,.5.69,2.63,2.63,0,0,0,2.38,0,.84.84,0,0,0,.46-.6h0C318.35,349.34,328.88,295,328.88,295Z" style="fill:#37474f"></path><path d="M322.27,295s-.33,2.17-.85,5.66c1.12,1.33,3.6,3.4,5.7,3.44l1.76-9.1Z" style="opacity:0.30000000000000004"></path><polygon points="401.1 250.87 398.2 287.61 401.73 290.27 404.9 252.42 401.1 250.87" style="fill:#37474f"></polygon><polygon points="363.85 229.84 360.95 266.59 364.48 269.24 367.65 231.39 363.85 229.84" style="fill:#37474f"></polygon><path d="M354.94,261.82s-22.08,6.21-39.1,22.58v6.69c3.14,3.77,27,22.38,52.14,30.1,16.77-7.72,33.37-20.69,36.23-24.22v-6.7C397.9,277.93,354.94,261.82,354.94,261.82Z" style="fill:#BA68C8"></path><path d="M315.84,284.4v6.69c3.14,3.77,27,22.38,52.14,30.1v-6.7C342.87,306.77,319,288.16,315.84,284.4Z" style="fill:#fff;opacity:0.2"></path><path d="M368,314.49v6.7c16.77-7.72,33.37-20.69,36.23-24.22v-6.7C401.35,293.8,384.75,306.77,368,314.49Z" style="opacity:0.2"></path><path d="M413.05,243.33a2.83,2.83,0,0,0-.43-1.5c-14.72-23.07-45.22-30.19-52-28.44l-3.16,3.19v16.54c23.53,3,43.71,18.33,51.86,30.17l1.08-.43a4.17,4.17,0,0,0,2.64-3.87V243.32Z" style="fill:#BA68C8"></path><path d="M413.05,243.33a2.89,2.89,0,0,1-1.91,2.77l-1.8.65v16.54l1.08-.43a4.17,4.17,0,0,0,2.64-3.87V243.32Z" style="opacity:0.1"></path><path d="M409.34,246.75l1.8-.65a2.89,2.89,0,0,0,1.91-2.77,2.83,2.83,0,0,0-.43-1.5c-14.72-23.07-45.22-30.19-52-28.44l-3.16,3.19C364.26,215.33,397.79,222,409.34,246.75Z" style="fill:#fff;opacity:0.30000000000000004"></path><path d="M357.48,216.58v16.54c23.53,3,43.71,18.33,51.86,30.17V246.75C397.79,222,364.26,215.33,357.48,216.58Z" style="opacity:0.30000000000000004"></path><path d="M313.43,394.18l.91,5.48c4.35-2.07,5.75-4.4,5.75-4.4.11-4.2.06-8.53,0-10.64-1.15,2.56-3.68,4.29-5.26,6.65A12.86,12.86,0,0,0,313.43,394.18Z" style="fill:#455a64"></path><path d="M312,399.07l2.31.59-.91-5.48C312.86,395.76,312.48,397.43,312,399.07Z" style="fill:#455a64"></path><path d="M313.43,394.18l.91,5.48c4.35-2.07,5.75-4.4,5.75-4.4.11-4.2.06-8.53,0-10.64-1.15,2.56-3.68,4.29-5.26,6.65A12.86,12.86,0,0,0,313.43,394.18Z" style="opacity:0.2"></path><path d="M312,399.07l2.31.59-.91-5.48C312.86,395.76,312.48,397.43,312,399.07Z" style="opacity:0.30000000000000004"></path><path d="M320.32,378.55a22.34,22.34,0,0,0-1.8-4.18,11.9,11.9,0,0,1-2,6.31c-1.56,2.52-3.65,4.7-5.16,7.26-1.83,3.12-2.77,6.78-5.18,9.48a11.34,11.34,0,0,1-9.47,3.69,5,5,0,0,1-3.47-1.56,2.7,2.7,0,0,1-.57-1.65,24.46,24.46,0,0,1-3.91,3.42c-1.58,1.11-3.47,2.27-3.73,4.18a4.06,4.06,0,0,0,2.27,3.88,10.7,10.7,0,0,0,4.62,1,29.77,29.77,0,0,0,10.18-.87,14.13,14.13,0,0,0,8.12-5.9,18,18,0,0,0,1.82-4.58c.45-1.64.83-3.31,1.4-4.89a12.86,12.86,0,0,1,1.42-2.91c1.58-2.36,4.11-4.09,5.26-6.65.06-.14.14-.27.19-.41A9.05,9.05,0,0,0,320.32,378.55Z" style="fill:#455a64"></path><path d="M296.7,401.11a11.34,11.34,0,0,0,9.47-3.69c2.41-2.7,3.35-6.36,5.18-9.48,1.51-2.56,3.6-4.74,5.16-7.26a11.9,11.9,0,0,0,2-6.31c.42-1.63,1.26-3.57,1.07-3.92-4.5-.4-7.5-1.52-12.54-2.23a228.56,228.56,0,0,1-8.88,21.7,34.93,34.93,0,0,1-5.51,8,2.7,2.7,0,0,0,.57,1.65A5,5,0,0,0,296.7,401.11Z" style="fill:#c97777"></path><path d="M326.32,345.09c-.55,8.72-2.78,15-4.48,26.93,0,0-10.44,3.11-16.95-1.44l-.27-18.31Z" style="fill:#37474f"></path><path d="M280.88,381.6l.91,5.48c4.35-2.07,5.75-4.4,5.75-4.4.11-4.21.06-8.54,0-10.64-1.15,2.56-3.68,4.28-5.26,6.64A12.93,12.93,0,0,0,280.88,381.6Z" style="fill:#455a64"></path><path d="M279.48,386.48l2.31.6-.91-5.48C280.31,383.18,279.93,384.85,279.48,386.48Z" style="fill:#455a64"></path><path d="M280.88,381.6l.91,5.48c4.35-2.07,5.75-4.4,5.75-4.4.11-4.21.06-8.54,0-10.64-1.15,2.56-3.68,4.28-5.26,6.64A12.93,12.93,0,0,0,280.88,381.6Z" style="opacity:0.2"></path><path d="M279.48,386.48l2.31.6-.91-5.48C280.31,383.18,279.93,384.85,279.48,386.48Z" style="opacity:0.30000000000000004"></path><path d="M287.77,366a22.06,22.06,0,0,0-1.8-4.18,12,12,0,0,1-2,6.31c-1.56,2.52-3.65,4.69-5.16,7.25-1.83,3.12-2.77,6.79-5.18,9.49a11.37,11.37,0,0,1-9.47,3.69,5,5,0,0,1-3.47-1.56,2.73,2.73,0,0,1-.57-1.65,25.5,25.5,0,0,1-3.91,3.42c-1.58,1.1-3.47,2.26-3.73,4.17a4.08,4.08,0,0,0,2.27,3.89,10.69,10.69,0,0,0,4.62,1,29.28,29.28,0,0,0,10.18-.87,14.07,14.07,0,0,0,8.12-5.89,18.1,18.1,0,0,0,1.82-4.59c.45-1.63.83-3.3,1.4-4.88a12.93,12.93,0,0,1,1.42-2.92c1.58-2.36,4.11-4.08,5.26-6.64.06-.14.14-.27.19-.41A9.05,9.05,0,0,0,287.77,366Z" style="fill:#455a64"></path><path d="M264.15,388.53a11.37,11.37,0,0,0,9.47-3.69c2.41-2.7,3.35-6.37,5.18-9.49,1.51-2.56,3.6-4.73,5.16-7.25a12,12,0,0,0,2-6.31c.42-1.63,1.26-3.57,1.07-3.93-4.5-.39-7.5-1.52-12.54-2.23a228.74,228.74,0,0,1-8.88,21.71,35.15,35.15,0,0,1-5.51,8,2.73,2.73,0,0,0,.57,1.65A5,5,0,0,0,264.15,388.53Z" style="fill:#c97777"></path><path d="M297.09,334.88c-2,8.5-5.28,14.35-9,25.78,0,0-10.81,1.3-16.45-4.28l4.85-29.86Z" style="fill:#37474f"></path><path d="M363.3,311.31c6.24-2.69,34.5-16.75,15.79-44.06l-46.36-6.66c-1.52,14.55-14.89,24.08-14.89,24.08Z" style="fill:#37474f"></path><path d="M347.18,221.69a15.14,15.14,0,0,1-17.12-6c-1.44-2.25-2.34-5.56-1.14-8a7.81,7.81,0,0,1-5.24-6.25,9,9,0,0,1,3.85-7.9,5,5,0,0,1-2.26-4.49,5,5,0,0,1,3-4.06,7.4,7.4,0,0,1,4.3-12.06,8.92,8.92,0,0,1,2.63-9.93,8.54,8.54,0,0,1,10-.3,7.31,7.31,0,0,1,6.17-4,7.62,7.62,0,0,1,6.68,3.48,6.8,6.8,0,0,1,6.7-1.72,6.25,6.25,0,0,1,4.32,5,9.12,9.12,0,0,1,8.59,13.39,8.16,8.16,0,0,1,3.45,5.31,6.42,6.42,0,0,1-1.69,5.34,8.56,8.56,0,0,1,2.69,13.39,6.52,6.52,0,0,1,1.93,6.54,6,6,0,0,1-5.05,4.1,10,10,0,0,1-17.73,8,8.37,8.37,0,0,1-6.45,3.54A10.78,10.78,0,0,1,347.18,221.69Z" style="fill:#263238"></path><path d="M354,275.69a50.26,50.26,0,0,0,25.08-8.44A64.21,64.21,0,0,0,371.93,257l-41.39,3.72c-.41,3.43-.71,6.82-.93,10.16A50.26,50.26,0,0,0,354,275.69Z" style="fill:#c97777"></path><path d="M339.38,224.35a6.84,6.84,0,0,0,4.42,1.18,24.86,24.86,0,0,0,19.76-9.8l-4.39-.39V201.22l-15.26,5.89v8.16H340a11.43,11.43,0,0,0-1.87,3.31C337.48,220.57,337.76,223,339.38,224.35Z" style="fill:#c97777"></path><path d="M358.1,201.63c-2.48,5.6-7.42,10.39-14.19,11.19v-5.71Z" style="fill:#a65353"></path><path d="M376.41,240.77c1.2-2.13,1-10.69.66-17a8,8,0,0,0-7.3-7.55l-6.21-.54a24.83,24.83,0,0,1-19.76,9.81c-2.31,0-4.85-.41-5.77-3.24a5.27,5.27,0,0,1-.2-2.43,9.78,9.78,0,0,1,2.17-4.59h-3.79c-3.63,3.22-9.81,14.24-12.46,23.06a28,28,0,0,0-1.25,6.21c-.27,4.43,3.15,6.6,5.51,8,0,0,1.6,6.54-.79,18.67,11.64,8.2,38.73,9.06,53.61-3.28C373,256.05,372.48,247.75,376.41,240.77Z" style="fill:#BA68C8"></path><path d="M376.41,240.77c1.2-2.13,1-10.69.66-17a8,8,0,0,0-7.3-7.55l-6.21-.54a24.83,24.83,0,0,1-19.76,9.81c-2.31,0-4.85-.41-5.77-3.24a5.27,5.27,0,0,1-.2-2.43,9.78,9.78,0,0,1,2.17-4.59h-3.79c-3.63,3.22-9.81,14.24-12.46,23.06a28,28,0,0,0-1.25,6.21c-.27,4.43,3.15,6.6,5.51,8,0,0,1.6,6.54-.79,18.67,11.64,8.2,38.73,9.06,53.61-3.28C373,256.05,372.48,247.75,376.41,240.77Z" style="fill:#fff;opacity:0.2"></path><path d="M362.75,276.43a11.73,11.73,0,0,0,5.32-1.75,52,52,0,0,1-8.78,2Z" style="fill:none"></path><path d="M359.29,276.68l-7.75.58A57.87,57.87,0,0,0,359.29,276.68Z" style="fill:#BA68C8"></path><path d="M374.66,267.22l.69-10c-2.21-6.51-1.57-11.78,1.06-16.45,1.1-2,1-9.33.74-15.37l-14.3,4.54-10,28.81L333.06,268l-5.53,1.44c-.1.55-.19,1.11-.31,1.7,5.57,3.93,15.93,7.38,25.56,7.3l7.75-.58a55,55,0,0,0,6-1.19,10.94,10.94,0,0,0,7.63-6.8l0-.09A10,10,0,0,0,374.66,267.22Z" style="opacity:0.2"></path><path d="M361.52,244.47a16.42,16.42,0,0,1-19.71,5.79,12.18,12.18,0,0,0,11.25,3.14C357,252.39,360.35,248.35,361.52,244.47Z" style="opacity:0.2"></path><path d="M368.93,194.81a4.66,4.66,0,0,0-9.05,2.22,2.66,2.66,0,0,1-2.41-.72,4.13,4.13,0,0,1-1.18-2.38,68.81,68.81,0,0,1,.52-7.51,7,7,0,0,1-3.43.19,7.63,7.63,0,0,1-5.05-3.79,5,5,0,0,1-3.55.29,5.75,5.75,0,0,1-3-2.35,5.44,5.44,0,0,1-5-1.48,5.35,5.35,0,0,1-1.46-3.24,23.45,23.45,0,0,0-2.6,4.41,28.14,28.14,0,0,0-2.09,7.08,45.79,45.79,0,0,0-.1,12.32c.36,3.23.57,6.5,3.37,8.67a10.56,10.56,0,0,0,5.63,2c7.41.62,15.32-3.69,19.86-9.44a3.93,3.93,0,0,0,4.7,1.84,10.85,10.85,0,0,0,3.89-3.25A5.83,5.83,0,0,0,368.93,194.81Z" style="fill:#c97777"></path><polygon points="340.32 190.88 335.24 197.14 339.96 198.76 340.32 190.88" style="fill:#f28f8f"></polygon><polygon points="340.32 190.88 335.24 197.14 339.96 198.76 340.32 190.88" style="fill:#a65353"></polygon><path d="M344.29,201.8l-4,1.26a2.45,2.45,0,0,0,2.68,1.2A2.19,2.19,0,0,0,344.29,201.8Z" style="fill:#f28f8f"></path><path d="M344.29,201.8l-4,1.26a2.45,2.45,0,0,0,2.68,1.2A2.19,2.19,0,0,0,344.29,201.8Z" style="fill:#a65353"></path><path d="M341.72,204.19a2.24,2.24,0,0,0,1.3.07,2,2,0,0,0,1.27-1.8,2.41,2.41,0,0,0-1.53.29A2.38,2.38,0,0,0,341.72,204.19Z" style="fill:#f28f8f"></path><path d="M347.3,192.18a1.41,1.41,0,1,1-1.34-1.47A1.41,1.41,0,0,1,347.3,192.18Z" style="fill:#263238"></path><path d="M335.51,191.2a1.41,1.41,0,1,1-1.34-1.47A1.41,1.41,0,0,1,335.51,191.2Z" style="fill:#263238"></path><path d="M334.39,185.53l-3.21,2a2,2,0,0,1,.71-2.18A2.38,2.38,0,0,1,334.39,185.53Z" style="fill:#263238"></path><path d="M346.45,185.91l3,2.3A2,2,0,0,0,349,186,2.39,2.39,0,0,0,346.45,185.91Z" style="fill:#263238"></path><polygon points="182.95 283.36 182.95 373.43 186.13 371.59 186.13 281.52 182.95 283.36" style="fill:#455a64"></polygon><polygon points="182.95 283.36 182.95 373.43 179.76 371.59 179.76 281.52 182.95 283.36" style="fill:#37474f"></polygon><polygon points="186.13 307.38 260.67 264.34 260.67 260.92 186.13 303.96 186.13 307.38" style="fill:#455a64"></polygon><polygon points="186.13 300.35 257.49 259.08 260.67 260.92 186.13 303.96 186.13 300.35" style="fill:#37474f"></polygon><polygon points="390.85 313.7 390.85 403.77 394.04 401.93 394.04 311.86 390.85 313.7" style="fill:#455a64"></polygon><polygon points="390.85 313.7 390.85 403.77 387.67 401.93 387.67 311.86 390.85 313.7" style="fill:#37474f"></polygon><polygon points="313.12 358.59 313.12 448.66 316.31 446.82 316.31 356.75 313.12 358.59" style="fill:#455a64"></polygon><polygon points="313.12 358.59 313.12 448.66 309.94 446.82 309.94 356.75 313.12 358.59" style="fill:#37474f"></polygon><polygon points="316.31 382.61 390.85 339.57 390.85 336.15 316.31 379.19 316.31 382.61" style="fill:#455a64"></polygon><polygon points="316.31 375.57 387.67 334.31 390.85 336.15 316.31 379.19 316.31 375.57" style="fill:#37474f"></polygon><g style="opacity:0.2"><polygon points="390.85 313.7 390.85 403.77 394.04 401.93 394.04 311.86 390.85 313.7" style="fill:#fff"></polygon><polygon points="390.85 313.7 390.85 403.77 387.67 401.93 387.67 311.86 390.85 313.7" style="fill:#fff"></polygon><polygon points="313.12 358.59 313.12 448.66 316.31 446.82 316.31 356.75 313.12 358.59" style="fill:#fff"></polygon><polygon points="313.12 358.59 313.12 448.66 309.94 446.82 309.94 356.75 313.12 358.59" style="fill:#fff"></polygon><polygon points="316.31 382.61 390.85 339.57 390.85 336.15 316.31 379.19 316.31 382.61" style="fill:#fff"></polygon><polygon points="316.31 375.57 387.67 334.31 390.85 336.15 316.31 379.19 316.31 375.57" style="fill:#fff"></polygon></g><g style="opacity:0.2"><polygon points="182.95 283.36 182.95 373.43 186.13 371.59 186.13 281.52 182.95 283.36" style="fill:#fff"></polygon><polygon points="182.95 283.36 182.95 373.43 179.76 371.59 179.76 281.52 182.95 283.36" style="fill:#fff"></polygon><polygon points="186.13 307.38 260.67 264.34 260.67 260.92 186.13 303.96 186.13 307.38" style="fill:#fff"></polygon><polygon points="186.13 300.35 257.49 259.08 260.67 260.92 186.13 303.96 186.13 300.35" style="fill:#fff"></polygon></g><polygon points="313.12 349.9 179.76 273.08 260.67 226.35 394.04 303.16 313.12 349.9" style="fill:#BA68C8"></polygon><polygon points="313.12 358.59 179.76 281.52 179.76 273.08 313.12 349.9 313.12 358.59" style="fill:#BA68C8"></polygon><polygon points="313.12 349.89 394.04 303.15 394.04 311.86 313.12 358.59 313.12 349.89" style="fill:#BA68C8"></polygon><polygon points="313.12 349.9 179.76 273.08 260.67 226.35 394.04 303.16 313.12 349.9" style="fill:#fff;opacity:0.4"></polygon><polygon points="313.12 349.89 394.04 303.15 394.04 311.86 313.12 358.59 313.12 349.89" style="fill:#fff;opacity:0.30000000000000004"></polygon><polygon points="313.12 358.59 179.76 281.52 179.76 273.08 313.12 349.9 313.12 358.59" style="fill:#fff;opacity:0.2"></polygon><path d="M248.22,268.8l31.44-18.27a7.08,7.08,0,0,1,6.46,0l51.87,30a2.31,2.31,0,0,1,1.33,1.77h0v2h0a2,2,0,0,1,0,.42s0,0,0,0a2.26,2.26,0,0,1-.22.44l0,.05a2.57,2.57,0,0,1-.39.43l0,0a3.76,3.76,0,0,1-.58.42l-31.44,18.27a6.13,6.13,0,0,1-.9.4l-.35.1-.46.11a5,5,0,0,1-.56.1l-.13,0a6.51,6.51,0,0,1-.77,0h-.12a6.34,6.34,0,0,1-.76,0h-.12c-.25,0-.49-.08-.73-.13l-.13,0-.63-.19-.12,0a6.3,6.3,0,0,1-.69-.33l-51.88-29.95a3.33,3.33,0,0,1-.58-.42,1.14,1.14,0,0,1-.15-.16,1.88,1.88,0,0,1-.27-.3,1.86,1.86,0,0,1-.11-.19c-.05-.1-.11-.2-.15-.3a1.52,1.52,0,0,1,0-.21,1.6,1.6,0,0,1-.05-.29v-1.84A2.27,2.27,0,0,1,248.22,268.8Z" style="fill:#e0e0e0"></path><path d="M248.22,268.8l31.44-18.27a7.08,7.08,0,0,1,6.46,0l51.87,30a2.31,2.31,0,0,1,1.33,1.77h0v2h0a2,2,0,0,1,0,.42s0,0,0,0a2.26,2.26,0,0,1-.22.44l0,.05a2.57,2.57,0,0,1-.39.43l0,0a3.76,3.76,0,0,1-.58.42l-31.44,18.27a6.13,6.13,0,0,1-.9.4l-.35.1-.46.11a5,5,0,0,1-.56.1l-.13,0a6.51,6.51,0,0,1-.77,0h-.12a6.34,6.34,0,0,1-.76,0h-.12c-.25,0-.49-.08-.73-.13l-.13,0-.63-.19-.12,0a6.3,6.3,0,0,1-.69-.33l-51.88-29.95a3.33,3.33,0,0,1-.58-.42,1.14,1.14,0,0,1-.15-.16,1.88,1.88,0,0,1-.27-.3,1.86,1.86,0,0,1-.11-.19c-.05-.1-.11-.2-.15-.3a1.52,1.52,0,0,1,0-.21,1.6,1.6,0,0,1-.05-.29v-1.84A2.27,2.27,0,0,1,248.22,268.8Z" style="opacity:0.2"></path><path d="M339.32,282.25a1.84,1.84,0,0,1-.05.57.06.06,0,0,0,0,0,2,2,0,0,1-.22.44l0,.05a2.57,2.57,0,0,1-.39.43s0,0,0,0a3.76,3.76,0,0,1-.58.42l-31.44,18.27a5.23,5.23,0,0,1-.9.4l-.35.1-.46.12c-.18,0-.37.07-.56.09l-.13,0a6.51,6.51,0,0,1-.77,0h-.12a6.34,6.34,0,0,1-.76,0h-.12c-.25,0-.49-.08-.73-.13l-.13,0-.63-.19-.12,0a6.3,6.3,0,0,1-.69-.33l-51.88-29.95a3.33,3.33,0,0,1-.58-.42,1.14,1.14,0,0,1-.15-.16,1.88,1.88,0,0,1-.27-.3,1.86,1.86,0,0,1-.11-.19c-.05-.1-.11-.2-.15-.3a1.52,1.52,0,0,1,0-.21,1.6,1.6,0,0,1-.05-.29v1.84a1.6,1.6,0,0,0,.05.29,1.52,1.52,0,0,0,0,.21c0,.1.1.2.15.3a1.86,1.86,0,0,0,.11.19,1.88,1.88,0,0,0,.27.3,1.14,1.14,0,0,0,.15.16,3.33,3.33,0,0,0,.58.42l51.88,29.95a6.3,6.3,0,0,0,.69.33l.12,0,.63.19.13,0c.24.05.48.1.73.13h.12a6.34,6.34,0,0,0,.76,0h.12a6.51,6.51,0,0,0,.77,0l.13,0a5,5,0,0,0,.56-.1l.46-.11.35-.1a6.13,6.13,0,0,0,.9-.4L338,286.06a3.76,3.76,0,0,0,.58-.42l0,0a2.57,2.57,0,0,0,.39-.43l0-.05a2.26,2.26,0,0,0,.22-.44s0,0,0,0a2,2,0,0,0,0-.42h0v-2Z" style="opacity:0.30000000000000004"></path><path d="M251.29,270.67l50.4,29.09.19.1.11,0a2.94,2.94,0,0,0,.4.12l.27.06h.2a3.19,3.19,0,0,0,.49,0h0l.52,0,.33-.06.4-.11a1.54,1.54,0,0,0,.35-.15l16.21-9.42-52.05-30Z" style="fill:#e0e0e0"></path><path d="M303.4,300.11h0Z" style="fill:#263238"></path><path d="M299.23,262.66l-9.48,5.58a1,1,0,0,0,0,1.66l14.18,8.18a1.57,1.57,0,0,0,1.58,0L315,272.5a1,1,0,0,0,0-1.66l-14.18-8.18A1.56,1.56,0,0,0,299.23,262.66Z" style="fill:#e0e0e0"></path><path d="M251.29,270.67l50.4,29.09.19.1.11,0a2.94,2.94,0,0,0,.4.12l.27.06h.2a3.19,3.19,0,0,0,.49,0h0l.52,0,.33-.06.4-.11a1.54,1.54,0,0,0,.35-.15l16.21-9.42-52.05-30Z" style="opacity:0.4"></path><path d="M299.23,262.66l-9.48,5.58a1,1,0,0,0,0,1.66l14.18,8.18a1.57,1.57,0,0,0,1.58,0L315,272.5a1,1,0,0,0,0-1.66l-14.18-8.18A1.56,1.56,0,0,0,299.23,262.66Z" style="opacity:0.4"></path><path d="M321.83,271.88c-2.88,3.89-.5,10,3.21,10.71C331.29,279.05,326.83,272.47,321.83,271.88Z" style="fill:#263238"></path><path d="M308.55,273.39l-5.83,2.54a1.46,1.46,0,0,0-.87,1.47h0a1.46,1.46,0,0,0,1.46,1.34h5.48Z" style="fill:#f28f8f"></path><path d="M308.55,273.39l-5.83,2.54a1.46,1.46,0,0,0-.87,1.47h0a1.46,1.46,0,0,0,1.46,1.34h5.48Z" style="fill:#a65353"></path><path d="M316.92,274.26l-5.18-2.41a3.47,3.47,0,0,0-3.86.64L304.19,276a2.9,2.9,0,0,0-.87,1.79L303,281.6a1.36,1.36,0,0,0,1,1.45h0a1.36,1.36,0,0,0,1.68-1.19l.33-3.3,1.93-2.14-1.06,1.65a2.54,2.54,0,0,0-.41,1.47l.09,2.84a2.41,2.41,0,0,0,1.38,2.1l4.49,2.15a2.43,2.43,0,0,0,2.39-.17,20.11,20.11,0,0,0,2-1.51,1.21,1.21,0,0,0,.16-1.29l2.07-1.49,41.46-7.1-10-13Z" style="fill:#c97777"></path><path d="M316.92,283.66a4.72,4.72,0,0,1-2.85.48,8.36,8.36,0,0,0,.1-2.81,4,4,0,0,1,.84,2.12A2.68,2.68,0,0,0,316.92,283.66Z" style="fill:#a65353"></path><path d="M372.78,216.33a7.84,7.84,0,0,0-8.2,6.07l-8.66,37.7-5.47,2-28.62,9.8c4.87,3.67,3.21,10.71,3.21,10.71l35.41-7.52a15.07,15.07,0,0,0,12.24-12l7.24-37.45A7.83,7.83,0,0,0,372.78,216.33Z" style="fill:#BA68C8"></path><path d="M372.78,216.33a7.84,7.84,0,0,0-8.2,6.07l-8.66,37.7-5.47,2-28.62,9.8c4.87,3.67,3.21,10.71,3.21,10.71l35.41-7.52a15.07,15.07,0,0,0,12.24-12l7.24-37.45A7.83,7.83,0,0,0,372.78,216.33Z" style="fill:#fff;opacity:0.2"></path><path d="M355.92,260.1c3.83,0,6.83,3.95,7.2,5.41.75-7.71-3.73-8-6.88-6.78Z" style="opacity:0.1"></path><path d="M336.21,215.27h0l-2.09-.05a25,25,0,0,0-17.07,6.2l-21.51,18.87a20,20,0,0,0-3.61,4.18L280.7,261.85,292,269.31,304,252l19.78-13.65C326.4,229.51,332.58,218.49,336.21,215.27Z" style="fill:#BA68C8"></path><path d="M336.21,215.27h0l-2.09-.05a25,25,0,0,0-17.07,6.2l-21.51,18.87a20,20,0,0,0-3.61,4.18L280.7,261.85,292,269.31,304,252l19.78-13.65C326.4,229.51,332.58,218.49,336.21,215.27Z" style="fill:#fff;opacity:0.2"></path><path d="M323.21,232.38a45.65,45.65,0,0,0-4.45,9.39l5-3.44a72,72,0,0,1,4.87-11.75A22.31,22.31,0,0,0,323.21,232.38Z" style="opacity:0.2"></path><path d="M239.75,232.17h0l1.24-.62h0a1.53,1.53,0,0,1,1.39.08L294.6,262a6.29,6.29,0,0,1,3.06,4.47L303,300.63a1.54,1.54,0,0,1-.88,1.65h0l-1.21.6h0a1.53,1.53,0,0,1-1.34-.11L247.4,272.39a6.27,6.27,0,0,1-3.06-4.47L239,233.78A1.56,1.56,0,0,1,239.75,232.17Z" style="fill:#e0e0e0"></path><path d="M239.75,232.17h0l1.24-.62h0a1.53,1.53,0,0,1,1.39.08L294.6,262a6.29,6.29,0,0,1,3.06,4.47L303,300.63a1.54,1.54,0,0,1-.88,1.65h0l-1.21.6h0a1.53,1.53,0,0,1-1.34-.11L247.4,272.39a6.27,6.27,0,0,1-3.06-4.47L239,233.78A1.56,1.56,0,0,1,239.75,232.17Z" style="opacity:0.2"></path><path d="M268.24,263.42a11.53,11.53,0,0,1,5.18,7.47c.34,2.66-1.42,3.65-3.95,2.19a11.56,11.56,0,0,1-5.18-7.47C264,263,265.72,262,268.24,263.42Z" style="fill:#fff"></path><path d="M302,301.15,296.61,267a6.3,6.3,0,0,0-3.06-4.47l-52.23-30.37a1.55,1.55,0,0,0-1.57,0h0l1.24-.62h0a1.53,1.53,0,0,1,1.39.08L294.6,262a6.29,6.29,0,0,1,3.06,4.47L303,300.63a1.54,1.54,0,0,1-.88,1.65h0l-1.21.6h0A1.55,1.55,0,0,0,302,301.15Z" style="opacity:0.30000000000000004"></path></g></svg>